<?xml version="1.0" encoding="UTF-8"?>
<svg id="Layer_1" data-name="Layer 1" xmlns="http://www.w3.org/2000/svg" viewBox="0 0 1000 336.2">
  <defs>
    <style>
      .cls-1 {
        fill: #dfdede;
      }
    </style>
  </defs>
  <g>
    <path class="cls-1" d="M218.19,82.58h37.29l48.93,127.63V82.58h30.58v175.62h-37.05l-49.17-127.63v127.63h-30.58V82.58Z"/>
    <path class="cls-1" d="M376.05,245.38c-9.53-10.94-14.35-28.23-14.35-51.99V82.58h34.7v119.51c0,8.94,2.47,16,6.71,20.7,4.59,5.06,11.06,7.41,18.59,7.41s14-2.35,18.58-7.41c4.24-4.71,6.71-11.76,6.71-20.7V82.58h34.7v110.81c0,23.88-4.71,41.29-14.23,51.99-9.53,10.82-24.82,16.23-45.76,16.23s-36.11-5.41-45.64-16.23Z"/>
    <path class="cls-1" d="M520.73,82.58h34.7V227.62h74.22v30.58h-108.93V82.58Z"/>
    <path class="cls-1" d="M665.76,82.58h34.7V227.62h74.22v30.58h-108.93V82.58Z"/>
  </g>
  <path class="cls-1" d="M803.93,291.93h19.31c11.01,0,18.51-2.24,22.34-6.86,3.83-4.63,5.75-14.52,5.75-29.69v-32.72c0-17.56,2.55-29.85,7.82-37.03,5.59-7.5,15.16-12.13,27.77-14.2-13.57-2.07-22.82-6.7-27.77-13.73-5.27-7.18-7.82-19.47-7.82-37.03v-33.36c0-14.84-1.92-24.74-5.59-29.37-3.99-4.95-12.29-6.86-22.5-6.86h-19.31V20.76h23.94c26.5,0,44.21,3.83,52.99,11.65,8.78,7.82,13.25,23.62,13.25,47.08v34.32c0,17.24,3.19,27.29,8.78,33.2,5.59,5.91,15.16,9.26,31.12,9.26h14.68v30.48h-14.68c-15,0-25.38,3.03-31.12,9.26-5.91,6.22-8.78,17.24-8.78,33.2v34.32c0,23.46-4.47,39.26-13.25,47.08-9.1,7.82-26.66,11.81-52.99,11.81h-23.94v-30.48Z"/>
  <path class="cls-1" d="M170.59,322.42c-26.33,0-44.05-3.99-53.15-11.81-9.1-7.82-13.57-23.46-13.57-47.08v-34.32c0-14.84-2.55-26.97-8.46-33.36-5.75-6.22-16.76-9.1-30.96-9.1h-14.68v-30.48h14.68c14.84,0,25.22-3.03,30.96-9.1,5.59-6.23,8.46-17.24,8.46-33.36v-34.32c0-23.62,4.47-39.26,13.57-47.08,8.78-7.82,26.49-11.65,53.15-11.65h23.94v30.33h-19.63c-11.17,0-18.51,2.23-22.19,6.7-3.67,4.63-5.59,14.36-5.59,29.53v33.36c0,17.56-2.55,29.85-7.82,37.03-5.27,7.02-14.52,11.65-27.93,13.73,13.25,2.23,22.66,7.02,27.93,14.2,5.27,7.18,7.82,19.47,7.82,37.03v32.72c0,15.16,1.92,25.22,5.59,29.85,3.67,4.47,11.01,6.7,22.19,6.7h19.63v30.48h-23.94Z"/>
</svg>